<?xml version="1.0" encoding="utf-8"?>
<!-- Generator: Adobe Illustrator 16.0.0, SVG Export Plug-In . SVG Version: 6.00 Build 0)  -->
<!DOCTYPE svg PUBLIC "-//W3C//DTD SVG 1.1//EN" "http://www.w3.org/Graphics/SVG/1.1/DTD/svg11.dtd">
<svg version="1.1" id="Calque_1" xmlns="http://www.w3.org/2000/svg" xmlns:xlink="http://www.w3.org/1999/xlink" x="0px" y="0px"
	 width="12.365px" height="22.17px" viewBox="0 0 12.365 22.17" enable-background="new 0 0 12.365 22.17" xml:space="preserve">
<g>
	<path fill="#141414" d="M2.284,5.726C2.99,5.598,4.42,5.502,5.76,5.502c1.641,0,2.647,0.144,3.512,0.607
		c0.829,0.398,1.43,1.134,1.43,2.108c0,0.958-0.617,1.853-1.958,2.3v0.031c1.357,0.336,2.364,1.262,2.364,2.652
		c0,0.975-0.494,1.741-1.236,2.284c-0.864,0.623-2.31,0.974-4.675,0.974c-1.323,0-2.312-0.079-2.911-0.159L2.284,5.726L2.284,5.726z
		 M4.949,9.847h0.883c1.412,0,2.17-0.527,2.17-1.326c0-0.814-0.688-1.245-1.906-1.245c-0.582,0-0.917,0.031-1.146,0.063L4.949,9.847
		L4.949,9.847z M4.949,14.622c0.265,0.032,0.583,0.032,1.041,0.032c1.218,0,2.294-0.414,2.294-1.549
		c0-1.087-1.076-1.519-2.417-1.519H4.949V14.622z"/>
</g>
</svg>
