<?xml version="1.0" encoding="utf-8"?>
<!-- Generator: Adobe Illustrator 16.0.0, SVG Export Plug-In . SVG Version: 6.00 Build 0)  -->
<!DOCTYPE svg PUBLIC "-//W3C//DTD SVG 1.1//EN" "http://www.w3.org/Graphics/SVG/1.1/DTD/svg11.dtd">
<svg version="1.1" id="Calque_1" xmlns="http://www.w3.org/2000/svg" xmlns:xlink="http://www.w3.org/1999/xlink" x="0px" y="0px"
	 width="12.365px" height="22.17px" viewBox="0 0 12.365 22.17" enable-background="new 0 0 12.365 22.17" xml:space="preserve">
<path fill="#606161" d="M7.861,6.65l-1.77,1.769L4.323,6.651c-0.587-0.587-1.539-0.587-2.126,0C1.609,7.238,1.609,8.189,2.197,8.777
	l1.768,1.769l-1.768,1.768c-0.588,0.588-0.588,1.539,0,2.127c0.587,0.587,1.539,0.587,2.126,0l1.769-1.769l1.769,1.769
	c0.587,0.587,1.539,0.587,2.126,0.001c0.588-0.588,0.588-1.539,0-2.127l-1.77-1.769l1.77-1.769c0.588-0.587,0.588-1.539,0-2.126
	C9.4,6.063,8.448,6.063,7.861,6.65z"/>
</svg>
