<?xml version="1.0" encoding="utf-8"?>
<!-- Generator: Adobe Illustrator 16.0.0, SVG Export Plug-In . SVG Version: 6.00 Build 0)  -->
<!DOCTYPE svg PUBLIC "-//W3C//DTD SVG 1.1//EN" "http://www.w3.org/Graphics/SVG/1.1/DTD/svg11.dtd">
<svg version="1.1" id="Calque_1" xmlns="http://www.w3.org/2000/svg" xmlns:xlink="http://www.w3.org/1999/xlink" x="0px" y="0px"
	 width="12.365px" height="22.17px" viewBox="0 0 12.365 22.17" enable-background="new 0 0 12.365 22.17" xml:space="preserve">
<g>
	<path fill="#141414" d="M9.917,10.911c0,0.656-0.08,1.229-0.237,1.718c-0.16,0.488-0.421,0.893-0.783,1.219
		c-0.344,0.308-0.746,0.532-1.207,0.675c-0.463,0.142-1,0.213-1.611,0.213c-0.627,0-1.174-0.075-1.639-0.224
		c-0.467-0.15-0.857-0.372-1.176-0.664c-0.362-0.332-0.623-0.732-0.782-1.204c-0.159-0.47-0.238-1.047-0.238-1.732V5.494h1.329
		v5.478c0,0.491,0.037,0.877,0.111,1.162c0.073,0.283,0.196,0.542,0.373,0.772c0.196,0.264,0.465,0.462,0.803,0.595
		c0.338,0.136,0.744,0.202,1.219,0.202c0.479,0,0.885-0.065,1.221-0.198c0.337-0.132,0.605-0.331,0.808-0.599
		c0.174-0.23,0.299-0.495,0.371-0.794c0.073-0.297,0.11-0.667,0.11-1.109V5.494h1.33L9.917,10.911L9.917,10.911z"/>
</g>
<rect x="2.243" y="15.479" fill="#141414" width="7.674" height="1.181"/>
</svg>
